<?xml version="1.0" encoding="UTF-8"?>
<svg width="700pt" height="700pt" version="1.1" viewBox="0 0 700 700" xmlns="http://www.w3.org/2000/svg" xmlns:xlink="http://www.w3.org/1999/xlink">
 <defs>
  <symbol id="e" overflow="visible">
   <path d="m28.422-1.7031c-1.4688 0.76172-3 1.3359-4.5938 1.7188-1.5859 0.38281-3.2344 0.57812-4.9531 0.57812-5.1562 0-9.2422-1.4375-12.25-4.3125-3.0117-2.875-4.5156-6.7812-4.5156-11.719s1.5039-8.8438 4.5156-11.719c3.0078-2.8828 7.0938-4.3281 12.25-4.3281 1.7188 0 3.3672 0.19531 4.9531 0.57812 1.5938 0.38672 3.125 0.96094 4.5938 1.7188v6.4062c-1.4805-1.0078-2.9375-1.75-4.375-2.2188s-2.9492-0.70312-4.5312-0.70312c-2.8438 0-5.0859 0.91406-6.7188 2.7344-1.625 1.8242-2.4375 4.3359-2.4375 7.5312 0 3.1992 0.8125 5.7109 2.4375 7.5312 1.6328 1.8242 3.875 2.7344 6.7188 2.7344 1.582 0 3.0938-0.23438 4.5312-0.70312 1.4375-0.47656 2.8945-1.2188 4.375-2.2188z"/>
  </symbol>
  <symbol id="c" overflow="visible">
   <path d="m20.797-16.875c-0.64844-0.3125-1.293-0.53516-1.9375-0.67188-0.64844-0.14453-1.293-0.21875-1.9375-0.21875-1.9062 0-3.375 0.60938-4.4062 1.8281-1.0234 1.2188-1.5312 2.9688-1.5312 5.25v10.688h-7.4219v-23.203h7.4219v3.8125c0.94531-1.5195 2.0352-2.6289 3.2656-3.3281 1.2383-0.69531 2.7227-1.0469 4.4531-1.0469 0.25 0 0.51953 0.011719 0.8125 0.03125 0.28906 0.023437 0.71094 0.070313 1.2656 0.14062z"/>
  </symbol>
  <symbol id="a" overflow="visible">
   <path d="m26.719-11.656v2.1094h-17.328c0.17578 1.7422 0.80078 3.0469 1.875 3.9219 1.082 0.86719 2.5859 1.2969 4.5156 1.2969 1.5625 0 3.1602-0.22656 4.7969-0.6875 1.6328-0.46875 3.3164-1.1719 5.0469-2.1094v5.7188c-1.75 0.65625-3.5078 1.1523-5.2656 1.4844-1.75 0.34375-3.5078 0.51562-5.2656 0.51562-4.1992 0-7.4609-1.0625-9.7812-3.1875-2.3242-2.1328-3.4844-5.1289-3.4844-8.9844 0-3.7812 1.1406-6.7539 3.4219-8.9219 2.2812-2.1758 5.4258-3.2656 9.4375-3.2656 3.6445 0 6.5625 1.1016 8.75 3.2969 2.1875 2.1992 3.2812 5.1367 3.2812 8.8125zm-7.625-2.4688c0-1.4062-0.41406-2.5391-1.2344-3.4062-0.8125-0.86328-1.8867-1.2969-3.2188-1.2969-1.4375 0-2.6055 0.40625-3.5 1.2188-0.89844 0.80469-1.4531 1.9648-1.6719 3.4844z"/>
  </symbol>
  <symbol id="j" overflow="visible">
   <path d="m13.969-10.438c-1.5547 0-2.7188 0.26562-3.5 0.79688-0.78125 0.52344-1.1719 1.293-1.1719 2.3125 0 0.9375 0.3125 1.6719 0.9375 2.2031 0.63281 0.53125 1.5078 0.79688 2.625 0.79688 1.3945 0 2.5664-0.5 3.5156-1.5 0.95703-1 1.4375-2.2539 1.4375-3.7656v-0.84375zm11.328-2.7969v13.234h-7.4844v-3.4375c-0.99219 1.4062-2.1094 2.4336-3.3594 3.0781-1.2422 0.63281-2.75 0.95312-4.5312 0.95312-2.4062 0-4.3594-0.69531-5.8594-2.0938-1.4922-1.4062-2.2344-3.2227-2.2344-5.4531 0-2.7266 0.92969-4.7266 2.7969-6 1.875-1.2695 4.8125-1.9062 8.8125-1.9062h4.375v-0.57812c0-1.1641-0.46484-2.0195-1.3906-2.5625-0.92969-0.55078-2.3711-0.82812-4.3281-0.82812-1.5859 0-3.0625 0.16406-4.4375 0.48438-1.3672 0.3125-2.6328 0.78906-3.7969 1.4219v-5.6562c1.582-0.38281 3.1758-0.67578 4.7812-0.875 1.6016-0.20703 3.2031-0.3125 4.7969-0.3125 4.1875 0 7.207 0.82812 9.0625 2.4844 1.8633 1.6484 2.7969 4.3281 2.7969 8.0469z"/>
  </symbol>
  <symbol id="b" overflow="visible">
   <path d="m11.656-29.781v6.5781h7.6562v5.3125h-7.6562v9.8281c0 1.0859 0.21094 1.8203 0.64062 2.2031 0.4375 0.375 1.2891 0.5625 2.5625 0.5625h3.7969v5.2969h-6.3594c-2.9297 0-5-0.60938-6.2188-1.8281-1.2188-1.2266-1.8281-3.3047-1.8281-6.2344v-9.8281h-3.6875v-5.3125h3.6875v-6.5781z"/>
  </symbol>
  <symbol id="i" overflow="visible">
   <path d="m19.344-19.797v-12.438h7.4531v32.234h-7.4531v-3.3594c-1.0234 1.3672-2.1484 2.3672-3.375 3-1.2305 0.63281-2.6523 0.95312-4.2656 0.95312-2.8555 0-5.2031-1.1328-7.0469-3.4062-1.8359-2.2695-2.75-5.1914-2.75-8.7656 0-3.5703 0.91406-6.4922 2.75-8.7656 1.8438-2.2812 4.1914-3.4219 7.0469-3.4219 1.6016 0 3.0195 0.32422 4.25 0.96875 1.2383 0.64844 2.3672 1.6484 3.3906 3zm-4.8906 15.016c1.5938 0 2.8047-0.57812 3.6406-1.7344 0.83203-1.1641 1.25-2.8516 1.25-5.0625 0-2.207-0.41797-3.8906-1.25-5.0469-0.83594-1.1641-2.0469-1.75-3.6406-1.75-1.5742 0-2.7773 0.58594-3.6094 1.75-0.83594 1.1562-1.25 2.8398-1.25 5.0469 0 2.2109 0.41406 3.8984 1.25 5.0625 0.83203 1.1562 2.0352 1.7344 3.6094 1.7344z"/>
  </symbol>
  <symbol id="h" overflow="visible">
   <path d="m15.906-4.7812c1.5938 0 2.8047-0.57812 3.6406-1.7344 0.83203-1.1641 1.25-2.8516 1.25-5.0625 0-2.207-0.41797-3.8906-1.25-5.0469-0.83594-1.1641-2.0469-1.75-3.6406-1.75-1.5859 0-2.8047 0.58594-3.6562 1.75-0.84375 1.168-1.2656 2.8516-1.2656 5.0469 0 2.1992 0.42188 3.8828 1.2656 5.0469 0.85156 1.168 2.0703 1.75 3.6562 1.75zm-4.9219-15.016c1.0195-1.3516 2.1484-2.3516 3.3906-3 1.2383-0.64453 2.6641-0.96875 4.2812-0.96875 2.8633 0 5.2109 1.1406 7.0469 3.4219 1.832 2.2734 2.75 5.1953 2.75 8.7656 0 3.5742-0.91797 6.4961-2.75 8.7656-1.8359 2.2734-4.1836 3.4062-7.0469 3.4062-1.6172 0-3.043-0.32031-4.2812-0.95312-1.2422-0.64453-2.3711-1.6445-3.3906-3v3.3594h-7.4219v-32.234h7.4219z"/>
  </symbol>
  <symbol id="g" overflow="visible">
   <path d="m0.51562-23.203h7.4219l6.2344 15.75 5.2969-15.75h7.4219l-9.7656 25.406c-0.98047 2.5703-2.1211 4.375-3.4219 5.4062-1.3047 1.0312-3.0273 1.5469-5.1719 1.5469h-4.2812v-4.875h2.3125c1.2578 0 2.1758-0.19922 2.75-0.59375 0.57031-0.39844 1.0156-1.1172 1.3281-2.1562l0.21875-0.64062z"/>
  </symbol>
  <symbol id="f" overflow="visible">
   <path d="m11.875-24.891v18.859h2.8594c3.25 0 5.7344-0.80469 7.4531-2.4219 1.7266-1.6133 2.5938-3.9609 2.5938-7.0469 0-3.0625-0.85938-5.3906-2.5781-6.9844-1.7109-1.6016-4.1992-2.4062-7.4688-2.4062zm-7.9844-6.0312h8.4062c4.6953 0 8.1953 0.33594 10.5 1 2.3008 0.66797 4.2695 1.8047 5.9062 3.4062 1.457 1.3984 2.5352 3.0078 3.2344 4.8281 0.70703 1.8242 1.0625 3.8867 1.0625 6.1875 0 2.3359-0.35547 4.418-1.0625 6.25-0.69922 1.8359-1.7773 3.4492-3.2344 4.8438-1.6562 1.5938-3.6484 2.7305-5.9688 3.4062-2.3125 0.66797-5.793 1-10.438 1h-8.4062z"/>
  </symbol>
  <symbol id="t" overflow="visible">
   <path d="m21.688-22.469v5.625c-1.5859-0.65625-3.1172-1.1484-4.5938-1.4844-1.4805-0.33203-2.875-0.5-4.1875-0.5-1.4062 0-2.4531 0.17969-3.1406 0.53125-0.6875 0.35547-1.0312 0.89844-1.0312 1.625 0 0.59375 0.25781 1.0547 0.78125 1.375 0.51953 0.3125 1.4453 0.54297 2.7812 0.6875l1.3125 0.1875c3.8008 0.49219 6.3516 1.2891 7.6562 2.3906 1.3125 1.1055 1.9688 2.8398 1.9688 5.2031 0 2.4688-0.91406 4.3242-2.7344 5.5625-1.8242 1.2422-4.543 1.8594-8.1562 1.8594-1.5312 0-3.1172-0.12109-4.75-0.35938-1.6367-0.23828-3.3203-0.59766-5.0469-1.0781v-5.6406c1.4766 0.71875 2.9922 1.2617 4.5469 1.625 1.5508 0.35547 3.1289 0.53125 4.7344 0.53125 1.4453 0 2.5352-0.19531 3.2656-0.59375 0.73828-0.40625 1.1094-1.0039 1.1094-1.7969 0-0.65625-0.25781-1.1445-0.76562-1.4688-0.5-0.32031-1.5078-0.57812-3.0156-0.76562l-1.2969-0.15625c-3.3047-0.41406-5.6172-1.1797-6.9375-2.2969-1.3242-1.125-1.9844-2.8281-1.9844-5.1094 0-2.457 0.83594-4.2812 2.5156-5.4688 1.6875-1.1875 4.2695-1.7812 7.75-1.7812 1.3633 0 2.7969 0.10547 4.2969 0.3125 1.5078 0.21094 3.1484 0.53906 4.9219 0.98438z"/>
  </symbol>
  <symbol id="d" overflow="visible">
   <path d="m3.5625-23.203h7.4219v23.203h-7.4219zm0-9.0312h7.4219v6.0469h-7.4219z"/>
  </symbol>
  <symbol id="s" overflow="visible">
   <path d="m19.344-3.9375c-1.0234 1.3555-2.1484 2.3516-3.375 2.9844-1.2305 0.63672-2.6523 0.95312-4.2656 0.95312-2.8359 0-5.1797-1.1133-7.0312-3.3438-1.8438-2.2266-2.7656-5.0703-2.7656-8.5312 0-3.457 0.92188-6.2969 2.7656-8.5156 1.8516-2.2188 4.1953-3.3281 7.0312-3.3281 1.6133 0 3.0352 0.32031 4.2656 0.95312 1.2266 0.63672 2.3516 1.6367 3.375 3v-3.4375h7.4531v20.859c0 3.7266-1.1797 6.5781-3.5312 8.5469-2.3555 1.9688-5.7656 2.9531-10.234 2.9531-1.4492 0-2.8516-0.10938-4.2031-0.32812-1.3555-0.21875-2.7148-0.55859-4.0781-1.0156v-5.7812c1.2891 0.75 2.5547 1.3047 3.7969 1.6719 1.25 0.36328 2.5 0.54688 3.75 0.54688 2.4375 0 4.2188-0.53125 5.3438-1.5938 1.1328-1.0625 1.7031-2.7266 1.7031-5zm-4.8906-14.438c-1.5312 0-2.7266 0.57031-3.5781 1.7031-0.85547 1.1367-1.2812 2.7344-1.2812 4.7969 0 2.1367 0.41016 3.75 1.2344 4.8438 0.83203 1.0938 2.0391 1.6406 3.625 1.6406 1.5508 0 2.7539-0.5625 3.6094-1.6875 0.85156-1.1328 1.2812-2.7344 1.2812-4.7969s-0.42969-3.6602-1.2812-4.7969c-0.85547-1.1328-2.0586-1.7031-3.6094-1.7031z"/>
  </symbol>
  <symbol id="r" overflow="visible">
   <path d="m26.891-14.125v14.125h-7.4688v-10.812c0-2-0.046875-3.3789-0.14062-4.1406-0.085938-0.75781-0.23438-1.3203-0.45312-1.6875-0.29297-0.47656-0.6875-0.85156-1.1875-1.125-0.49219-0.26953-1.0547-0.40625-1.6875-0.40625-1.5547 0-2.7734 0.60156-3.6562 1.7969-0.875 1.1992-1.3125 2.8555-1.3125 4.9688v11.406h-7.4219v-23.203h7.4219v3.4062c1.1133-1.3516 2.2969-2.3516 3.5469-3 1.2578-0.64453 2.6484-0.96875 4.1719-0.96875 2.6758 0 4.707 0.82422 6.0938 2.4688 1.3945 1.6484 2.0938 4.0391 2.0938 7.1719z"/>
  </symbol>
  <symbol id="q" overflow="visible">
   <path d="m22.312-22.469v6.0469c-1.0117-0.69531-2.0273-1.207-3.0469-1.5312-1.0117-0.33203-2.0625-0.5-3.1562-0.5-2.0625 0-3.6719 0.60547-4.8281 1.8125-1.1562 1.2109-1.7344 2.8984-1.7344 5.0625 0 2.168 0.57812 3.8555 1.7344 5.0625 1.1562 1.2109 2.7656 1.8125 4.8281 1.8125 1.1641 0 2.2695-0.17188 3.3125-0.51562 1.0391-0.34375 2.0039-0.85156 2.8906-1.5312v6.0625c-1.168 0.42969-2.3516 0.74219-3.5469 0.95312-1.1875 0.21875-2.3828 0.32812-3.5781 0.32812-4.1875 0-7.4648-1.0703-9.8281-3.2188-2.3555-2.1445-3.5312-5.1289-3.5312-8.9531 0-3.8203 1.1758-6.8047 3.5312-8.9531 2.3633-2.1562 5.6406-3.2344 9.8281-3.2344 1.207 0 2.3984 0.10938 3.5781 0.32812 1.1875 0.21875 2.3672 0.54297 3.5469 0.96875z"/>
  </symbol>
  <symbol id="p" overflow="visible">
   <path d="m3.5625-32.234h7.4219v32.234h-7.4219z"/>
  </symbol>
  <symbol id="o" overflow="visible">
   <path d="m18.828-32.234v4.875h-4.0938c-1.0547 0-1.7891 0.19531-2.2031 0.57812-0.41797 0.375-0.625 1.0312-0.625 1.9688v1.6094h6.3438v5.3125h-6.3438v17.891h-7.4062v-17.891h-3.6875v-5.3125h3.6875v-1.6094c0-2.5312 0.70312-4.3984 2.1094-5.6094 1.4062-1.207 3.5859-1.8125 6.5469-1.8125z"/>
  </symbol>
  <symbol id="n" overflow="visible">
   <path d="m26.891-14.125v14.125h-7.4688v-10.766c0-2.0312-0.046875-3.4258-0.14062-4.1875-0.085938-0.75781-0.23438-1.3203-0.45312-1.6875-0.29297-0.47656-0.6875-0.85156-1.1875-1.125-0.49219-0.26953-1.0547-0.40625-1.6875-0.40625-1.5547 0-2.7734 0.60156-3.6562 1.7969-0.875 1.1992-1.3125 2.8555-1.3125 4.9688v11.406h-7.4219v-32.234h7.4219v12.438c1.1133-1.3516 2.2969-2.3516 3.5469-3 1.2578-0.64453 2.6484-0.96875 4.1719-0.96875 2.6758 0 4.707 0.82422 6.0938 2.4688 1.3945 1.6484 2.0938 4.0391 2.0938 7.1719z"/>
  </symbol>
  <symbol id="m" overflow="visible">
   <path d="m3.8906-30.922h8.9062l11.25 21.203v-21.203h7.5625v30.922h-8.9062l-11.25-21.219v21.219h-7.5625z"/>
  </symbol>
  <symbol id="l" overflow="visible">
   <path d="m3.8906-30.922h13.234c3.9375 0 6.957 0.875 9.0625 2.625 2.1016 1.7422 3.1562 4.2266 3.1562 7.4531 0 3.25-1.0547 5.75-3.1562 7.5-2.1055 1.7422-5.125 2.6094-9.0625 2.6094h-5.25v10.734h-7.9844zm7.9844 5.7812v8.625h4.4062c1.5391 0 2.7344-0.375 3.5781-1.125s1.2656-1.8164 1.2656-3.2031c0-1.375-0.42188-2.4297-1.2656-3.1719-0.84375-0.75-2.0391-1.125-3.5781-1.125z"/>
  </symbol>
  <symbol id="k" overflow="visible">
   <path d="m3.5625-23.203h7.4219v22.781c0 3.1133-0.75 5.4883-2.25 7.125-1.4922 1.6328-3.6523 2.4531-6.4844 2.4531h-3.6562v-4.875h1.2812c1.4062 0 2.3672-0.32031 2.8906-0.95312 0.53125-0.63672 0.79688-1.8867 0.79688-3.75zm0-9.0312h7.4219v6.0469h-7.4219z"/>
  </symbol>
 </defs>
 <g>
  <path d="m480.92 362.81c0.50781-1.4414 1.6133-2.4609 2.9688-2.6289l15.613-2.2891c8.9102-1.3594 15.441-8.9102 15.441-17.988v-39.793c0-8.6562-6.1094-16.121-14.594-17.816l-14.426-2.8867c-1.2734-0.25391-2.2891-1.2734-2.7148-2.7148-2.0352-6.8711-4.582-13.574-7.7227-20.109-0.67969-1.3594-0.59375-2.9688 0.25391-3.9883l8.4844-11.453c5.2617-7.1289 4.668-16.969-1.4414-23.418l-27.406-28.848c-6.1953-6.2773-15.953-7.3828-23.164-2.5469l-12.133 8.0625c-1.2734 0.93359-2.8867 0.59375-4.0742-0.085937-6.8711-3.5625-13.238-6.3633-19.43-8.5703-1.4414-0.50781-2.4609-1.6133-2.6289-2.8867l-2.207-15.02c-1.1875-8.9102-8.9102-15.613-17.988-15.613h-39.793c-8.6562 0-16.121 6.1953-17.734 14.594l-2.5469 12.387-5.1758 5.5156c-6.5352 2.1211-12.473 4.4141-17.988 7.1289-1.4414 0.67969-2.9688 0.67969-4.1562-0.16797l-11.625-8.4844c-7.1289-5.1758-16.887-4.582-23.25 1.5273l-28.934 27.574c-6.3633 6.1094-7.4648 15.867-2.6289 23.164l7.8906 11.879c0.76172 1.1875 0.84766 2.7148 0.16797 3.9883-1.2734 2.2891-2.375 4.582-3.5625 6.957-1.9531 4.0742-3.7344 8.4844-5.2617 12.98-0.42578 1.2734-1.4414 2.207-2.6289 2.375l-15.695 2.375c-8.9102 1.1875-15.613 8.9102-15.613 17.902v39.285c0 8.9102 6.3633 16.629 15.102 18.414l13.914 2.8008c1.3594 0.25391 2.375 1.3594 2.8008 2.8008 1.9531 6.6172 4.4961 13.32 7.6367 19.938 0.67969 1.3594 0.59375 2.9688-0.25391 4.0742l-8.5703 11.625c-5.1758 7.043-4.582 16.887 1.5273 23.418l27.492 28.762c6.1094 6.3633 15.867 7.4648 23.25 2.4609l11.965-8.0625c1.1875-0.76172 2.7148-0.84766 4.1562 0 6.7031 3.6484 13.32 6.5352 19.684 8.6562 1.3594 0.42578 2.375 1.7812 2.5469 3.3945l2.1211 14.762c1.3594 8.9922 8.9102 15.527 17.988 15.527h39.793c8.6562 0 16.121-6.1953 17.734-14.594l2.9688-14.426c0.25391-1.3594 1.3594-2.4609 2.8867-2.8867 6.8711-2.0352 13.574-4.668 20.023-7.8047 1.4414-0.67969 2.9688-0.59375 4.1562 0.25391l10.859 7.8906c7.5508 5.5156 17.902 4.75 24.605-1.6953l28.086-26.98c6.3633-5.9375 7.5508-15.953 2.7148-23.164l-8.0625-12.133c-0.76172-1.1016-0.76172-2.6289 0-3.9883 3.3164-5.9375 6.2031-12.559 8.5781-19.43zm-20.617 31.477 8.0625 12.133c1.0195 1.4414 0.76172 3.5625-0.59375 4.8359l-28.168 26.98c-1.6953 1.6133-4.3281 1.7812-6.2773 0.42578l-10.859-7.8906c-5.4297-3.9023-12.641-4.582-18.836-1.5273-5.7695 2.8008-11.793 5.0898-17.988 6.957-6.5352 1.9531-11.371 7.2109-12.727 13.746l-2.9688 14.508c-0.33984 1.7812-1.8672 3.0547-3.7344 3.0547h-39.793c-1.9531 0-3.4805-1.3594-3.8164-3.2227l-2.1211-14.68c-1.0195-6.8711-5.7695-12.812-12.133-14.934-5.5156-1.8672-11.453-4.4961-17.48-7.7227-2.8008-1.5273-5.8555-2.2891-8.9102-2.2891-3.5625 0-7.043 1.0195-10.012 3.0547l-11.965 8.0625c-1.6133 1.1016-3.6484 0.84766-4.9219-0.50781l-27.492-28.68c-1.3594-1.4414-1.5273-3.4805-0.33984-5.0078l8.5703-11.539c3.9883-5.3438 4.582-12.559 1.6953-18.75-2.8008-5.9375-5.0898-11.965-6.7891-17.816-1.9531-6.6172-7.2109-11.539-13.832-12.898l-13.914-2.8008c-2.0352-0.42578-3.5625-2.207-3.5625-4.3281v-39.285c0-1.8672 1.3594-3.4805 3.3086-3.7344l15.867-2.375c6.4492-1.0195 11.879-5.6016 14-11.965 1.3594-3.9883 2.8867-7.8906 4.582-11.453 1.0195-2.207 2.1211-4.2422 3.2227-6.3633 3.2227-5.9375 2.8867-13.152-0.84766-18.75l-7.8906-11.879c-1.0195-1.5273-0.76172-3.6484 0.50781-4.9219l29.102-27.574c1.3594-1.2734 3.3945-1.4414 4.9219-0.33984l11.625 8.4844c5.4297 3.9023 12.641 4.4961 18.836 1.5273 5.4297-2.6289 11.285-4.9219 17.816-6.8711 1.1875-0.33984 2.2891-1.0195 3.1406-1.9531l7.8047-8.3984c0.93359-0.93359 1.5273-2.1211 1.7812-3.3945l2.9688-14.426c0.33984-1.7812 1.8672-3.0547 3.7344-3.0547h39.793c1.9531 0 3.5625 1.3594 3.8164 3.3086l2.207 15.102c0.93359 6.6172 5.6016 12.133 12.047 14.34 5.6016 1.9531 11.285 4.4961 17.48 7.6367 6.1094 3.3945 13.406 3.0547 18.836-0.76172l12.047-8.0625c1.5273-1.0195 3.6484-0.76172 4.9219 0.50781l27.32 28.762c1.2734 1.3594 1.4414 3.4805 0.33984 5.0078l-8.4844 11.453c-3.9883 5.3438-4.582 12.559-1.6133 18.75 2.8008 5.7695 5.0898 11.793 6.957 17.902 1.9531 6.5352 7.1289 11.371 13.66 12.727l14.426 2.8867c1.7812 0.33984 3.0547 1.9531 3.0547 3.8164v39.793c0 1.9531-1.3594 3.4805-3.2227 3.8164l-15.527 2.2891c-6.6172 1.0195-12.133 5.6016-14.426 12.047-2.1211 6.1094-4.75 11.879-7.7227 17.223-3.3906 6.2109-3.2188 13.422 0.51563 19.02z"/>
  <path d="m350 220.78c-53.113 0-96.305 43.188-96.305 96.305 0 53.113 43.191 96.301 96.305 96.301s96.305-43.188 96.305-96.305c0-53.113-43.191-96.301-96.305-96.301zm0 178.27c-45.223 0-81.965-36.738-81.965-81.965 0-45.223 36.738-81.965 81.965-81.965 45.223 0 81.965 36.738 81.965 81.965s-36.742 81.965-81.965 81.965z"/>
  <path d="m350 283.99c8.3984 0 15.188 5.8555 15.188 12.98 0 3.9883 3.2227 7.1289 7.1289 7.1289 3.9883 0 7.1289-3.2227 7.1289-7.1289 0-12.812-9.5039-23.418-22.316-26.473v-7.1289c0-3.9883-3.2227-7.1289-7.1289-7.1289-3.9883 0-7.1289 3.2227-7.1289 7.1289v7.1289c-12.812 2.9688-22.316 13.66-22.316 26.473 0 15.102 13.238 27.32 29.527 27.32 8.3984 0 15.188 5.8555 15.188 12.98 0 7.2109-6.7891 12.98-15.188 12.98-8.3984 0-15.188-5.8555-15.188-12.98 0-3.9883-3.2227-7.1289-7.1289-7.1289-3.9023 0-7.1289 3.2227-7.1289 7.1289 0 12.812 9.5039 23.418 22.316 26.473v8.9922c0 3.9883 3.2227 7.1289 7.1289 7.1289 3.9883 0 7.1289-3.2227 7.1289-7.1289v-8.9922c12.812-2.9688 22.316-13.66 22.316-26.473 0-15.102-13.238-27.32-29.527-27.32-8.3984 0-15.188-5.8555-15.188-12.98 0-7.2109 6.8711-12.98 15.188-12.98z"/>
  <path d="m397.52 317.16c0 3.9883 3.2227 7.1289 7.1289 7.1289h10.52c3.9883 0 7.1289-3.2227 7.1289-7.1289 0-3.9883-3.2227-7.1289-7.1289-7.1289h-10.52c-3.9062-0.082031-7.1289 3.1406-7.1289 7.1289z"/>
  <path d="m295.36 309.95h-10.52c-3.9883 0-7.1289 3.2227-7.1289 7.1289 0 3.9883 3.2227 7.1289 7.1289 7.1289h10.52c3.9883 0 7.1289-3.2227 7.1289-7.1289-0.003906-3.9062-3.2266-7.1289-7.1289-7.1289z"/>
  <path d="m153.41 383.52-19.938-19.938c-2.8008-2.8008-7.2969-2.8008-10.098 0l-20.027 19.938c-2.8008 2.8008-2.8008 7.2969 0 10.098s7.2969 2.8008 10.098 0l7.7227-7.7227v57.953c0 3.9883 3.2227 7.1289 7.1289 7.1289 3.9883 0 7.1289-3.2227 7.1289-7.1289v-57.953l7.7227 7.7227c1.3594 1.3594 3.2227 2.1211 5.0898 2.1211s3.6484-0.67969 5.0898-2.1211c2.8828-2.7148 2.8828-7.2969 0.082031-10.098z"/>
  <path d="m187.26 445.96c-2.8008-2.8008-7.2969-2.8008-10.098 0l-23.758 23.758c-2.8008 2.8008-2.8008 7.2969 0 10.098 2.8008 2.8008 7.2969 2.8008 10.098 0l11.539-11.539v72.289c0 3.9883 3.2227 7.1289 7.1289 7.1289 3.9883 0 7.1289-3.2227 7.1289-7.1289l-0.003906-72.207 11.539 11.539c1.3594 1.3594 3.2227 2.1211 5.0898 2.1211 1.8672 0 3.6484-0.67969 5.0898-2.1211 2.8008-2.8008 2.8008-7.2969 0-10.098z"/>
  <path d="m537.34 391.57-15.273-15.273c-1.3594-1.3594-3.1406-2.1211-5.0898-2.1211-1.9531 0-3.7344 0.76172-5.0898 2.1211l-15.273 15.273c-2.8008 2.8008-2.8008 7.2969 0 10.098 2.8008 2.8008 7.2969 2.8008 10.098 0l3.0547-3.0547v40.387c0 3.9883 3.2227 7.1289 7.1289 7.1289 3.9023 0 7.1289-3.2227 7.1289-7.1289v-40.387l3.0547 3.0547c1.3594 1.3594 3.2227 2.1211 5.0898 2.1211s3.6484-0.67969 5.0898-2.1211c2.8828-2.8008 2.8828-7.2969 0.082031-10.098z"/>
  <path d="m572.9 436.38c-2.8008-2.8008-7.2969-2.8008-10.098 0l-23.758 23.758c-2.8008 2.8008-2.8008 7.2969 0 10.098s7.2969 2.8008 10.098 0l11.539-11.539v72.289c0 3.9883 3.2227 7.1289 7.1289 7.1289 3.9023 0 7.1289-3.2227 7.1289-7.1289v-72.289l11.539 11.539c1.3594 1.3594 3.2227 2.1211 5.0898 2.1211 1.8672 0 3.6484-0.67969 5.0898-2.1211 2.8008-2.8008 2.8008-7.2969 0-10.098z"/>
  <path d="m614.05 196.34c-12.473-38.184-48.449-63.723-90.109-64.484 1.7812-7.4648 2.7148-15.02 2.7148-22.656 0-53.453-43.527-96.98-96.98-96.98-35.043 0-67.113 18.922-84.168 48.957-16.715-12.387-36.992-19.09-57.953-19.09-51.332 0-93.504 40.133-96.727 90.617-23.926-3.3086-48.617 2.7148-68.898 17.055-22.656 16.035-37.418 40.727-40.473 67.625-3.6484 31.648 8.3164 63.129 32.074 84.086 12.047 10.691 27.492 17.988 44.715 21.043 0.42578 0.085937 0.84766 0.085937 1.2734 0.085937 3.3945 0 6.4492-2.4609 7.043-5.9375 0.67969-3.9023-1.8672-7.6367-5.7695-8.3164-14.594-2.6289-27.66-8.7383-37.758-17.734-20.281-17.738-30.547-44.547-27.32-71.617 2.6289-22.91 15.188-43.953 34.449-57.613 19.262-13.574 43.02-18.496 65.332-13.32 2.2891 0.84766 4.9219 0.33984 6.7891-1.1875 1.9531-1.5273 2.8867-3.9023 2.6289-6.3633-0.085937-0.50781 0-1.0195 0-1.5273 0-45.562 37.078-82.641 82.641-82.641 20.535 0 40.219 7.5508 55.492 21.297 1.6953 1.5273 4.0742 2.1211 6.2773 1.6953 2.207-0.50781 4.1562-1.9531 5.0898-4.0742 13.238-29.613 42.848-48.703 75.262-48.703 45.562 0 82.727 37.078 82.727 82.641 0 9.418-1.6133 18.75-4.8359 27.832-0.84766 2.2891-0.42578 4.9219 1.1016 6.8711 1.5273 1.9531 3.9023 2.9688 6.3633 2.7148 2.375-0.25391 4.582-0.33984 7.043-0.33984 36.23 0 67.625 21.891 78.316 54.641 8.5703 26.219 5.0898 52.52-9.5859 74.328-11.539 17.055-29.867 28.762-51.672 33.09-3.9023 0.76172-6.4492 4.4961-5.6836 8.3984 0.76172 3.9023 4.4961 6.3633 8.3984 5.6836 25.539-5.0078 47.09-18.922 60.75-39.113 17.055-25.277 21.211-56.926 11.453-86.961z"/>
 </g>
</svg>
