<svg width="277" height="78" viewBox="0 0 277 78" fill="none" xmlns="http://www.w3.org/2000/svg">
<path d="M1.63065 2.96403C0.897354 1.63112 1.86167 0 3.38297 0H190.409C191.513 0 192.409 0.895431 192.409 2V76C192.409 77.1046 191.513 78 190.409 78H44.0937C43.3644 78 42.6929 77.603 42.3414 76.964L1.63065 2.96403Z" fill="#16BAC5"/>
<path d="M67.8957 22.8906C70.1769 22.8906 72.0363 23.2031 73.4738 23.8281C74.9426 24.4531 76.2238 25.2656 77.3176 26.2656V30.9062C76.6301 30.4062 75.8488 29.8594 74.9738 29.2656C74.1301 28.6719 73.1301 28.1562 71.9738 27.7188C70.8488 27.25 69.4894 27.0156 67.8957 27.0156C65.5519 27.0156 63.4582 27.5469 61.6144 28.6094C59.7707 29.6719 58.3176 31.1406 57.2551 33.0156C56.1926 34.8594 55.6613 36.9531 55.6613 39.2969C55.6613 41.6406 56.1926 43.7344 57.2551 45.5781C58.3176 47.4219 59.7707 48.8906 61.6144 49.9844C63.4582 51.0469 65.5519 51.5781 67.8957 51.5781C70.3019 51.5781 72.3488 51.1875 74.0363 50.4062C75.7551 49.5938 77.1613 48.7656 78.2551 47.9219V52.1406C77.1613 53.1094 75.7238 53.9531 73.9426 54.6719C72.1926 55.3594 70.1769 55.7031 67.8957 55.7031C65.5207 55.7031 63.3332 55.2812 61.3332 54.4375C59.3332 53.5625 57.5832 52.375 56.0832 50.875C54.5832 49.375 53.4113 47.6406 52.5676 45.6719C51.7551 43.6719 51.3488 41.5469 51.3488 39.2969C51.3488 37.0469 51.7551 34.9375 52.5676 32.9688C53.4113 30.9688 54.5832 29.2188 56.0832 27.7188C57.5832 26.2188 59.3332 25.0469 61.3332 24.2031C63.3332 23.3281 65.5207 22.8906 67.8957 22.8906ZM87.9469 21.25V55H84.1032V21.25H87.9469ZM106.029 31.0938C108.404 31.0938 110.514 31.6562 112.358 32.7812C114.201 33.9062 115.639 35.4062 116.67 37.2812C117.733 39.1562 118.264 41.2031 118.264 43.4219C118.264 45.6406 117.733 47.6875 116.67 49.5625C115.639 51.4062 114.201 52.8906 112.358 54.0156C110.514 55.1406 108.404 55.7031 106.029 55.7031C103.654 55.7031 101.545 55.1406 99.7013 54.0156C97.8576 52.8906 96.4044 51.4062 95.3419 49.5625C94.3107 47.6875 93.7951 45.6406 93.7951 43.4219C93.7951 41.2031 94.3107 39.1562 95.3419 37.2812C96.4044 35.4062 97.8576 33.9062 99.7013 32.7812C101.545 31.6562 103.654 31.0938 106.029 31.0938ZM106.029 34.8438C104.373 34.8438 102.92 35.25 101.67 36.0625C100.42 36.8438 99.4513 37.8906 98.7638 39.2031C98.1076 40.4844 97.7794 41.8906 97.7794 43.4219C97.7794 44.9219 98.1076 46.3281 98.7638 47.6406C99.4513 48.9219 100.42 49.9688 101.67 50.7812C102.92 51.5625 104.373 51.9531 106.029 51.9531C107.717 51.9531 109.17 51.5625 110.389 50.7812C111.639 49.9688 112.592 48.9219 113.248 47.6406C113.936 46.3281 114.279 44.9219 114.279 43.4219C114.279 41.8906 113.936 40.4844 113.248 39.2031C112.592 37.8906 111.639 36.8438 110.389 36.0625C109.17 35.25 107.717 34.8438 106.029 34.8438ZM143.284 31.5625V45.4375C143.284 47.5 142.846 49.2812 141.971 50.7812C141.096 52.2812 139.909 53.4375 138.409 54.25C136.909 55.0625 135.221 55.4688 133.346 55.4688C131.471 55.4688 129.784 55.0625 128.284 54.25C126.784 53.4375 125.596 52.2812 124.721 50.7812C123.846 49.2812 123.409 47.5 123.409 45.4375V31.5625H127.393V45.4375C127.393 47.4688 127.987 49.0312 129.174 50.125C130.393 51.1875 131.784 51.7188 133.346 51.7188C134.909 51.7188 136.284 51.1875 137.471 50.125C138.69 49.0312 139.299 47.4688 139.299 45.4375V31.5625H143.284ZM171.257 21.25V55H167.413V51.0156C166.601 52.2656 165.491 53.3594 164.085 54.2969C162.71 55.2344 161.132 55.7031 159.351 55.7031C157.351 55.7031 155.523 55.2031 153.866 54.2031C152.21 53.1719 150.882 51.75 149.882 49.9375C148.913 48.125 148.429 46.0312 148.429 43.6562C148.429 41.0625 148.913 38.8281 149.882 36.9531C150.882 35.0781 152.241 33.6406 153.96 32.6406C155.679 31.6094 157.601 31.0938 159.726 31.0938C161.069 31.0938 162.429 31.4219 163.804 32.0781C165.21 32.7031 166.413 33.5781 167.413 34.7031V21.25H171.257ZM160.429 34.9375C158.741 34.9375 157.304 35.3594 156.116 36.2031C154.929 37.0156 154.007 38.0781 153.351 39.3906C152.726 40.7031 152.413 42.125 152.413 43.6562C152.413 45.1562 152.726 46.5469 153.351 47.8281C153.976 49.0781 154.851 50.0781 155.976 50.8281C157.132 51.5781 158.46 51.9531 159.96 51.9531C161.398 51.9531 162.679 51.5781 163.804 50.8281C164.929 50.0781 165.819 49.0469 166.476 47.7344C167.132 46.3906 167.444 44.8906 167.413 43.2344L167.366 38.7344C166.398 37.5156 165.351 36.5781 164.226 35.9219C163.132 35.2656 161.866 34.9375 160.429 34.9375Z" fill="white"/>
<path d="M188 2C188 0.89543 188.895 0 190 0H274.591C275.696 0 276.591 0.895431 276.591 2V76C276.591 77.1046 275.696 78 274.591 78H190C188.895 78 188 77.1046 188 76V2Z" fill="#345995"/>
<path d="M218.866 22.8906C220.991 22.8906 223.022 23.2656 224.96 24.0156C226.928 24.7344 228.678 25.7969 230.21 27.2031C231.741 28.6094 232.944 30.3281 233.819 32.3594C234.725 34.3906 235.178 36.7031 235.178 39.2969C235.178 41.8906 234.725 44.2031 233.819 46.2344C232.944 48.2656 231.741 49.9844 230.21 51.3906C228.678 52.7969 226.928 53.875 224.96 54.625C223.022 55.3438 220.991 55.7031 218.866 55.7031C216.741 55.7031 214.694 55.3438 212.725 54.625C210.788 53.875 209.053 52.7969 207.522 51.3906C205.991 49.9844 204.772 48.2656 203.866 46.2344C202.991 44.2031 202.553 41.8906 202.553 39.2969C202.553 36.7031 202.991 34.3906 203.866 32.3594C204.772 30.3281 205.991 28.6094 207.522 27.2031C209.053 25.7969 210.788 24.7344 212.725 24.0156C214.694 23.2656 216.741 22.8906 218.866 22.8906ZM218.866 31.0938C217.46 31.0938 216.21 31.4531 215.116 32.1719C214.022 32.8906 213.147 33.875 212.491 35.125C211.866 36.3438 211.553 37.7344 211.553 39.2969C211.553 40.8594 211.866 42.2656 212.491 43.5156C213.147 44.7344 214.022 45.7031 215.116 46.4219C216.21 47.1406 217.46 47.5 218.866 47.5C220.272 47.5 221.522 47.1406 222.616 46.4219C223.741 45.7031 224.616 44.7344 225.241 43.5156C225.866 42.2656 226.178 40.8594 226.178 39.2969C226.178 37.7344 225.866 36.3438 225.241 35.125C224.616 33.875 223.741 32.8906 222.616 32.1719C221.522 31.4531 220.272 31.0938 218.866 31.0938ZM250.788 22.8906C252.632 22.8906 254.444 23.125 256.225 23.5938C258.038 24.0312 259.491 24.625 260.585 25.375V33.8594C259.241 33.0781 257.913 32.4062 256.6 31.8438C255.288 31.25 253.741 30.9531 251.96 30.9531C250.928 30.9531 250.038 31.1094 249.288 31.4219C248.538 31.7344 248.163 32.25 248.163 32.9688C248.163 33.75 248.616 34.3438 249.522 34.75C250.428 35.125 251.538 35.5625 252.85 36.0625L256.225 37.3281C258.507 38.2031 260.116 39.3906 261.053 40.8906C262.022 42.3906 262.507 43.8906 262.507 45.3906C262.507 47.3906 261.928 49.1719 260.772 50.7344C259.616 52.2656 258.053 53.4844 256.085 54.3906C254.116 55.2656 251.913 55.7031 249.475 55.7031C247.6 55.7031 245.741 55.375 243.897 54.7188C242.053 54.0625 240.444 53.25 239.069 52.2812V43.7969C240.569 44.9219 242.178 45.8438 243.897 46.5625C245.647 47.2812 247.397 47.6406 249.147 47.6406C250.241 47.6406 251.116 47.5156 251.772 47.2656C252.46 46.9844 252.803 46.5156 252.803 45.8594C252.803 45.3906 252.553 44.9844 252.053 44.6406C251.553 44.2969 250.882 44 250.038 43.75L245.585 42.3438C243.835 41.7812 242.475 41.0156 241.507 40.0469C240.538 39.0781 239.866 38 239.491 36.8125C239.116 35.5938 238.928 34.3594 238.928 33.1094C238.928 30.8906 239.491 29.0312 240.616 27.5312C241.741 26 243.21 24.8438 245.022 24.0625C246.835 23.2812 248.757 22.8906 250.788 22.8906Z" fill="white"/>
</svg>
