<svg width="284" height="88" viewBox="0 0 284 88" fill="none" xmlns="http://www.w3.org/2000/svg">
<path d="M7.38297 2.5C3.96004 2.5 1.79033 6.17002 3.44024 9.16907L44.151 83.1691C44.9419 84.6068 46.4528 85.5 48.0937 85.5H194.409C196.894 85.5 198.909 83.4853 198.909 81V7C198.909 4.51472 196.894 2.5 194.409 2.5H7.38297Z" fill="#16BAC5" stroke="white" stroke-width="5"/>
<path d="M71.8957 27.8906C74.1769 27.8906 76.0363 28.2031 77.4738 28.8281C78.9426 29.4531 80.2238 30.2656 81.3176 31.2656V35.9062C80.6301 35.4062 79.8488 34.8594 78.9738 34.2656C78.1301 33.6719 77.1301 33.1562 75.9738 32.7188C74.8488 32.25 73.4894 32.0156 71.8957 32.0156C69.5519 32.0156 67.4582 32.5469 65.6144 33.6094C63.7707 34.6719 62.3176 36.1406 61.2551 38.0156C60.1926 39.8594 59.6613 41.9531 59.6613 44.2969C59.6613 46.6406 60.1926 48.7344 61.2551 50.5781C62.3176 52.4219 63.7707 53.8906 65.6144 54.9844C67.4582 56.0469 69.5519 56.5781 71.8957 56.5781C74.3019 56.5781 76.3488 56.1875 78.0363 55.4062C79.7551 54.5938 81.1613 53.7656 82.2551 52.9219V57.1406C81.1613 58.1094 79.7238 58.9531 77.9426 59.6719C76.1926 60.3594 74.1769 60.7031 71.8957 60.7031C69.5207 60.7031 67.3332 60.2812 65.3332 59.4375C63.3332 58.5625 61.5832 57.375 60.0832 55.875C58.5832 54.375 57.4113 52.6406 56.5676 50.6719C55.7551 48.6719 55.3488 46.5469 55.3488 44.2969C55.3488 42.0469 55.7551 39.9375 56.5676 37.9688C57.4113 35.9688 58.5832 34.2188 60.0832 32.7188C61.5832 31.2188 63.3332 30.0469 65.3332 29.2031C67.3332 28.3281 69.5207 27.8906 71.8957 27.8906ZM91.9469 26.25V60H88.1032V26.25H91.9469ZM110.029 36.0938C112.404 36.0938 114.514 36.6562 116.358 37.7812C118.201 38.9062 119.639 40.4062 120.67 42.2812C121.733 44.1562 122.264 46.2031 122.264 48.4219C122.264 50.6406 121.733 52.6875 120.67 54.5625C119.639 56.4062 118.201 57.8906 116.358 59.0156C114.514 60.1406 112.404 60.7031 110.029 60.7031C107.654 60.7031 105.545 60.1406 103.701 59.0156C101.858 57.8906 100.404 56.4062 99.3419 54.5625C98.3107 52.6875 97.7951 50.6406 97.7951 48.4219C97.7951 46.2031 98.3107 44.1562 99.3419 42.2812C100.404 40.4062 101.858 38.9062 103.701 37.7812C105.545 36.6562 107.654 36.0938 110.029 36.0938ZM110.029 39.8438C108.373 39.8438 106.92 40.25 105.67 41.0625C104.42 41.8438 103.451 42.8906 102.764 44.2031C102.108 45.4844 101.779 46.8906 101.779 48.4219C101.779 49.9219 102.108 51.3281 102.764 52.6406C103.451 53.9219 104.42 54.9688 105.67 55.7812C106.92 56.5625 108.373 56.9531 110.029 56.9531C111.717 56.9531 113.17 56.5625 114.389 55.7812C115.639 54.9688 116.592 53.9219 117.248 52.6406C117.936 51.3281 118.279 49.9219 118.279 48.4219C118.279 46.8906 117.936 45.4844 117.248 44.2031C116.592 42.8906 115.639 41.8438 114.389 41.0625C113.17 40.25 111.717 39.8438 110.029 39.8438ZM147.284 36.5625V50.4375C147.284 52.5 146.846 54.2812 145.971 55.7812C145.096 57.2812 143.909 58.4375 142.409 59.25C140.909 60.0625 139.221 60.4688 137.346 60.4688C135.471 60.4688 133.784 60.0625 132.284 59.25C130.784 58.4375 129.596 57.2812 128.721 55.7812C127.846 54.2812 127.409 52.5 127.409 50.4375V36.5625H131.393V50.4375C131.393 52.4688 131.987 54.0312 133.174 55.125C134.393 56.1875 135.784 56.7188 137.346 56.7188C138.909 56.7188 140.284 56.1875 141.471 55.125C142.69 54.0312 143.299 52.4688 143.299 50.4375V36.5625H147.284ZM175.257 26.25V60H171.413V56.0156C170.601 57.2656 169.491 58.3594 168.085 59.2969C166.71 60.2344 165.132 60.7031 163.351 60.7031C161.351 60.7031 159.523 60.2031 157.866 59.2031C156.21 58.1719 154.882 56.75 153.882 54.9375C152.913 53.125 152.429 51.0312 152.429 48.6562C152.429 46.0625 152.913 43.8281 153.882 41.9531C154.882 40.0781 156.241 38.6406 157.96 37.6406C159.679 36.6094 161.601 36.0938 163.726 36.0938C165.069 36.0938 166.429 36.4219 167.804 37.0781C169.21 37.7031 170.413 38.5781 171.413 39.7031V26.25H175.257ZM164.429 39.9375C162.741 39.9375 161.304 40.3594 160.116 41.2031C158.929 42.0156 158.007 43.0781 157.351 44.3906C156.726 45.7031 156.413 47.125 156.413 48.6562C156.413 50.1562 156.726 51.5469 157.351 52.8281C157.976 54.0781 158.851 55.0781 159.976 55.8281C161.132 56.5781 162.46 56.9531 163.96 56.9531C165.398 56.9531 166.679 56.5781 167.804 55.8281C168.929 55.0781 169.819 54.0469 170.476 52.7344C171.132 51.3906 171.444 49.8906 171.413 48.2344L171.366 43.7344C170.398 42.5156 169.351 41.5781 168.226 40.9219C167.132 40.2656 165.866 39.9375 164.429 39.9375Z" fill="white"/>
<mask id="path-3-outside-1_5_2" maskUnits="userSpaceOnUse" x="190" y="0" width="94" height="88" fill="black">
<rect fill="white" x="190" width="94" height="88"/>
<path d="M190 5H276.591C277.696 5 278.591 5.89543 278.591 7V81C278.591 82.1046 277.696 83 276.591 83H190V5Z"/>
</mask>
<path d="M190 5H276.591C277.696 5 278.591 5.89543 278.591 7V81C278.591 82.1046 277.696 83 276.591 83H190V5Z" fill="#151D2D"/>
<path d="M190 0H276.591C280.457 0 283.591 3.13401 283.591 7L273.591 10H190V0ZM283.591 81C283.591 84.866 280.457 88 276.591 88H190V78H273.591L283.591 81ZM190 83V5V83ZM276.591 0C280.457 0 283.591 3.13401 283.591 7V81C283.591 84.866 280.457 88 276.591 88L273.591 78V10L276.591 0Z" fill="white" mask="url(#path-3-outside-1_5_2)"/>
<path d="M220.866 27.8906C222.991 27.8906 225.022 28.2656 226.96 29.0156C228.928 29.7344 230.678 30.7969 232.21 32.2031C233.741 33.6094 234.944 35.3281 235.819 37.3594C236.725 39.3906 237.178 41.7031 237.178 44.2969C237.178 46.8906 236.725 49.2031 235.819 51.2344C234.944 53.2656 233.741 54.9844 232.21 56.3906C230.678 57.7969 228.928 58.875 226.96 59.625C225.022 60.3438 222.991 60.7031 220.866 60.7031C218.741 60.7031 216.694 60.3438 214.725 59.625C212.788 58.875 211.053 57.7969 209.522 56.3906C207.991 54.9844 206.772 53.2656 205.866 51.2344C204.991 49.2031 204.553 46.8906 204.553 44.2969C204.553 41.7031 204.991 39.3906 205.866 37.3594C206.772 35.3281 207.991 33.6094 209.522 32.2031C211.053 30.7969 212.788 29.7344 214.725 29.0156C216.694 28.2656 218.741 27.8906 220.866 27.8906ZM220.866 36.0938C219.46 36.0938 218.21 36.4531 217.116 37.1719C216.022 37.8906 215.147 38.875 214.491 40.125C213.866 41.3438 213.553 42.7344 213.553 44.2969C213.553 45.8594 213.866 47.2656 214.491 48.5156C215.147 49.7344 216.022 50.7031 217.116 51.4219C218.21 52.1406 219.46 52.5 220.866 52.5C222.272 52.5 223.522 52.1406 224.616 51.4219C225.741 50.7031 226.616 49.7344 227.241 48.5156C227.866 47.2656 228.178 45.8594 228.178 44.2969C228.178 42.7344 227.866 41.3438 227.241 40.125C226.616 38.875 225.741 37.8906 224.616 37.1719C223.522 36.4531 222.272 36.0938 220.866 36.0938ZM252.788 27.8906C254.632 27.8906 256.444 28.125 258.225 28.5938C260.038 29.0312 261.491 29.625 262.585 30.375V38.8594C261.241 38.0781 259.913 37.4062 258.6 36.8438C257.288 36.25 255.741 35.9531 253.96 35.9531C252.928 35.9531 252.038 36.1094 251.288 36.4219C250.538 36.7344 250.163 37.25 250.163 37.9688C250.163 38.75 250.616 39.3438 251.522 39.75C252.428 40.125 253.538 40.5625 254.85 41.0625L258.225 42.3281C260.507 43.2031 262.116 44.3906 263.053 45.8906C264.022 47.3906 264.507 48.8906 264.507 50.3906C264.507 52.3906 263.928 54.1719 262.772 55.7344C261.616 57.2656 260.053 58.4844 258.085 59.3906C256.116 60.2656 253.913 60.7031 251.475 60.7031C249.6 60.7031 247.741 60.375 245.897 59.7188C244.053 59.0625 242.444 58.25 241.069 57.2812V48.7969C242.569 49.9219 244.178 50.8438 245.897 51.5625C247.647 52.2812 249.397 52.6406 251.147 52.6406C252.241 52.6406 253.116 52.5156 253.772 52.2656C254.46 51.9844 254.803 51.5156 254.803 50.8594C254.803 50.3906 254.553 49.9844 254.053 49.6406C253.553 49.2969 252.882 49 252.038 48.75L247.585 47.3438C245.835 46.7812 244.475 46.0156 243.507 45.0469C242.538 44.0781 241.866 43 241.491 41.8125C241.116 40.5938 240.928 39.3594 240.928 38.1094C240.928 35.8906 241.491 34.0312 242.616 32.5312C243.741 31 245.21 29.8438 247.022 29.0625C248.835 28.2812 250.757 27.8906 252.788 27.8906Z" fill="white"/>
</svg>
