<?xml version="1.0" encoding="UTF-8"?>
<svg width="700pt" height="700pt" version="1.1" viewBox="0 0 700 700" xmlns="http://www.w3.org/2000/svg" xmlns:xlink="http://www.w3.org/1999/xlink">
 <defs>
  <symbol id="m" overflow="visible">
   <path d="m29.312-1.75c-1.5117 0.78125-3.0898 1.3711-4.7344 1.7656-1.6367 0.40625-3.3398 0.60938-5.1094 0.60938-5.3125 0-9.5273-1.4844-12.641-4.4531-3.1055-2.9688-4.6562-7-4.6562-12.094s1.5508-9.125 4.6562-12.094c3.1133-2.9688 7.3281-4.4531 12.641-4.4531 1.7695 0 3.4727 0.19922 5.1094 0.59375 1.6445 0.39844 3.2227 0.99219 4.7344 1.7812v6.5938c-1.5312-1.0391-3.0391-1.8008-4.5156-2.2812-1.4805-0.48828-3.0391-0.73438-4.6719-0.73438-2.9375 0-5.2461 0.94531-6.9219 2.8281-1.6797 1.875-2.5156 4.4648-2.5156 7.7656 0 3.293 0.83594 5.8828 2.5156 7.7656 1.6758 1.875 3.9844 2.8125 6.9219 2.8125 1.6328 0 3.1914-0.23828 4.6719-0.71875 1.4766-0.48828 2.9844-1.2539 4.5156-2.2969z"/>
  </symbol>
  <symbol id="h" overflow="visible">
   <path d="m21.453-17.406c-0.67969-0.3125-1.3516-0.53906-2.0156-0.6875-0.65625-0.15625-1.3203-0.23438-1.9844-0.23438-1.9688 0-3.4844 0.63281-4.5469 1.8906-1.0547 1.2617-1.5781 3.0703-1.5781 5.4219v11.016h-7.6562v-23.922h7.6562v3.9219c0.97656-1.5625 2.1016-2.7031 3.375-3.4219 1.2812-0.71875 2.8125-1.0781 4.5938-1.0781 0.25 0 0.52344 0.011719 0.82812 0.03125 0.30078 0.023438 0.73438 0.070312 1.2969 0.14062z"/>
  </symbol>
  <symbol id="c" overflow="visible">
   <path d="m27.562-12.031v2.1875h-17.891c0.1875 1.793 0.83203 3.1367 1.9375 4.0312 1.1133 0.89844 2.6719 1.3438 4.6719 1.3438 1.6016 0 3.25-0.23438 4.9375-0.70312 1.6875-0.47656 3.4219-1.2031 5.2031-2.1719v5.8906c-1.8047 0.6875-3.6094 1.2031-5.4219 1.5469-1.8125 0.35156-3.6211 0.53125-5.4219 0.53125-4.3359 0-7.7031-1.0977-10.109-3.2969-2.3984-2.207-3.5938-5.2969-3.5938-9.2656 0-3.9062 1.1758-6.9727 3.5312-9.2031 2.3633-2.2383 5.6094-3.3594 9.7344-3.3594 3.7578 0 6.7695 1.1367 9.0312 3.4062 2.2578 2.2617 3.3906 5.2812 3.3906 9.0625zm-7.8594-2.5312c0-1.457-0.42969-2.6289-1.2812-3.5156-0.84375-0.89453-1.9492-1.3438-3.3125-1.3438-1.4922 0-2.6992 0.41797-3.625 1.25-0.91797 0.83594-1.4922 2.0391-1.7188 3.6094z"/>
  </symbol>
  <symbol id="b" overflow="visible">
   <path d="m14.391-10.766c-1.5938 0-2.793 0.27344-3.5938 0.8125-0.80469 0.54297-1.2031 1.3398-1.2031 2.3906 0 0.96875 0.32031 1.7305 0.96875 2.2812 0.64453 0.54297 1.5469 0.8125 2.7031 0.8125 1.4375 0 2.6445-0.51562 3.625-1.5469 0.98828-1.0312 1.4844-2.3203 1.4844-3.875v-0.875zm11.688-2.8906v13.656h-7.7031v-3.5469c-1.0312 1.4492-2.1875 2.5078-3.4688 3.1719s-2.8398 1-4.6719 1c-2.4805 0-4.4961-0.72266-6.0469-2.1719-1.543-1.4453-2.3125-3.3203-2.3125-5.625 0-2.8125 0.96094-4.8672 2.8906-6.1719 1.9375-1.3125 4.9688-1.9688 9.0938-1.9688h4.5156v-0.60938c0-1.207-0.48047-2.0938-1.4375-2.6562-0.94922-0.5625-2.4375-0.84375-4.4688-0.84375-1.6367 0-3.1562 0.16797-4.5625 0.5-1.4062 0.32422-2.7188 0.8125-3.9375 1.4688v-5.8281c1.6445-0.40625 3.2891-0.70703 4.9375-0.90625 1.6562-0.20703 3.3047-0.3125 4.9531-0.3125 4.3203 0 7.4375 0.85547 9.3438 2.5625 1.9141 1.6992 2.875 4.4609 2.875 8.2812z"/>
  </symbol>
  <symbol id="a" overflow="visible">
   <path d="m12.031-30.719v6.7969h7.875v5.4688h-7.875v10.141c0 1.1172 0.21875 1.8711 0.65625 2.2656 0.4375 0.38672 1.3125 0.57812 2.625 0.57812h3.9375v5.4688h-6.5625c-3.0234 0-5.1641-0.62891-6.4219-1.8906-1.2617-1.2578-1.8906-3.3984-1.8906-6.4219v-10.141h-3.7969v-5.4688h3.7969v-6.7969z"/>
  </symbol>
  <symbol id="g" overflow="visible">
   <path d="m19.953-20.422v-12.812h7.6875v33.234h-7.6875v-3.4531c-1.0547 1.4062-2.2148 2.4375-3.4844 3.0938-1.2734 0.65625-2.7422 0.98438-4.4062 0.98438-2.9492 0-5.3711-1.1719-7.2656-3.5156-1.8867-2.3438-2.8281-5.3594-2.8281-9.0469s0.94141-6.7031 2.8281-9.0469c1.8945-2.3438 4.3164-3.5156 7.2656-3.5156 1.6562 0 3.1172 0.33594 4.3906 1 1.2812 0.65625 2.4453 1.6836 3.5 3.0781zm-5.0469 15.484c1.6445 0 2.8945-0.59766 3.75-1.7969 0.86328-1.1953 1.2969-2.9297 1.2969-5.2031 0-2.2812-0.43359-4.0195-1.2969-5.2188-0.85547-1.1953-2.1055-1.7969-3.75-1.7969-1.625 0-2.8711 0.60156-3.7344 1.7969-0.85547 1.1992-1.2812 2.9375-1.2812 5.2188 0 2.2734 0.42578 4.0078 1.2812 5.2031 0.86328 1.1992 2.1094 1.7969 3.7344 1.7969z"/>
  </symbol>
  <symbol id="f" overflow="visible">
   <path d="m16.406-4.9375c1.6328 0 2.8828-0.59766 3.75-1.7969 0.86328-1.1953 1.2969-2.9297 1.2969-5.2031 0-2.2812-0.43359-4.0195-1.2969-5.2188-0.86719-1.1953-2.1172-1.7969-3.75-1.7969-1.6367 0-2.8906 0.60547-3.7656 1.8125-0.875 1.1992-1.3125 2.9336-1.3125 5.2031 0 2.2617 0.4375 3.9961 1.3125 5.2031 0.875 1.1992 2.1289 1.7969 3.7656 1.7969zm-5.0781-15.484c1.0508-1.3945 2.2188-2.4219 3.5-3.0781 1.2812-0.66406 2.7539-1 4.4219-1 2.9453 0 5.3672 1.1719 7.2656 3.5156 1.8945 2.3438 2.8438 5.3594 2.8438 9.0469s-0.94922 6.7031-2.8438 9.0469c-1.8984 2.3438-4.3203 3.5156-7.2656 3.5156-1.668 0-3.1406-0.33594-4.4219-1s-2.4492-1.6914-3.5-3.0781v3.4531h-7.6562v-33.234h7.6562z"/>
  </symbol>
  <symbol id="e" overflow="visible">
   <path d="m0.53125-23.922h7.6562l6.4219 16.234 5.4688-16.234h7.6562l-10.062 26.188c-1.0117 2.6641-2.1953 4.5234-3.5469 5.5781-1.3438 1.0625-3.1211 1.5938-5.3281 1.5938h-4.4219v-5.0156h2.3906c1.3008 0 2.2422-0.21094 2.8281-0.625 0.59375-0.40625 1.0547-1.1484 1.3906-2.2188l0.20312-0.65625z"/>
  </symbol>
  <symbol id="d" overflow="visible">
   <path d="m3.4219-9.3125v-14.609h7.6875v2.3906c0 1.293-0.011719 2.918-0.03125 4.875-0.011719 1.9609-0.015625 3.2656-0.015625 3.9219 0 1.9297 0.046875 3.3125 0.14062 4.1562 0.10156 0.84375 0.28125 1.4609 0.53125 1.8438 0.3125 0.5 0.71875 0.88672 1.2188 1.1562 0.50781 0.27344 1.0938 0.40625 1.75 0.40625 1.5938 0 2.8438-0.60938 3.75-1.8281 0.91406-1.2266 1.375-2.9297 1.375-5.1094v-11.812h7.6406v23.922h-7.6406v-3.4531c-1.1562 1.3867-2.3828 2.4141-3.6719 3.0781-1.2812 0.66406-2.6992 1-4.25 1-2.7734 0-4.8828-0.84766-6.3281-2.5469-1.4375-1.6953-2.1562-4.1602-2.1562-7.3906z"/>
  </symbol>
  <symbol id="l" overflow="visible">
   <path d="m3.6719-33.234h7.6562v33.234h-7.6562z"/>
  </symbol>
  <symbol id="k" overflow="visible">
   <path d="m11.328-3.4531v12.547h-7.6562v-33.016h7.6562v3.5c1.0508-1.3945 2.2188-2.4219 3.5-3.0781 1.2812-0.66406 2.7539-1 4.4219-1 2.9453 0 5.3672 1.1719 7.2656 3.5156 1.8945 2.3438 2.8438 5.3594 2.8438 9.0469s-0.94922 6.7031-2.8438 9.0469c-1.8984 2.3438-4.3203 3.5156-7.2656 3.5156-1.668 0-3.1406-0.33594-4.4219-1s-2.4492-1.6914-3.5-3.0781zm5.0781-15.5c-1.6367 0-2.8906 0.60547-3.7656 1.8125-0.875 1.1992-1.3125 2.9336-1.3125 5.2031 0 2.2617 0.4375 3.9961 1.3125 5.2031 0.875 1.1992 2.1289 1.7969 3.7656 1.7969 1.6328 0 2.8828-0.59766 3.75-1.7969 0.86328-1.1953 1.2969-2.9297 1.2969-5.2031 0-2.2812-0.43359-4.0195-1.2969-5.2188-0.86719-1.1953-2.1172-1.7969-3.75-1.7969z"/>
  </symbol>
  <symbol id="j" overflow="visible">
   <path d="m27.734-14.562v14.562h-7.7031v-11.109c0-2.0938-0.046875-3.5312-0.14062-4.3125-0.085937-0.78125-0.24219-1.3594-0.46875-1.7344-0.30469-0.5-0.71094-0.88281-1.2188-1.1562-0.51172-0.28125-1.0938-0.42188-1.75-0.42188-1.5938 0-2.8516 0.61719-3.7656 1.8438-0.90625 1.2305-1.3594 2.9375-1.3594 5.125v11.766h-7.6562v-33.234h7.6562v12.812c1.1445-1.3945 2.3633-2.4219 3.6562-3.0781 1.3008-0.66406 2.7383-1 4.3125-1 2.7578 0 4.8516 0.85156 6.2812 2.5469 1.4375 1.6875 2.1562 4.1523 2.1562 7.3906z"/>
  </symbol>
  <symbol id="i" overflow="visible">
   <path d="m27.734-14.562v14.562h-7.7031v-11.156c0-2.0625-0.046875-3.4844-0.14062-4.2656-0.085937-0.78125-0.24219-1.3594-0.46875-1.7344-0.30469-0.5-0.71094-0.88281-1.2188-1.1562-0.51172-0.28125-1.0938-0.42188-1.75-0.42188-1.5938 0-2.8516 0.61719-3.7656 1.8438-0.90625 1.2305-1.3594 2.9375-1.3594 5.125v11.766h-7.6562v-23.922h7.6562v3.5c1.1445-1.3945 2.3633-2.4219 3.6562-3.0781 1.3008-0.66406 2.7383-1 4.3125-1 2.7578 0 4.8516 0.85156 6.2812 2.5469 1.4375 1.6875 2.1562 4.1523 2.1562 7.3906z"/>
  </symbol>
 </defs>
 <g>
  <path d="m210 87.5c6.9609 0 13.641-2.7656 18.562-7.6875s7.6875-11.602 7.6875-18.562-2.7656-13.641-7.6875-18.562-11.602-7.6875-18.562-7.6875-13.641 2.7656-18.562 7.6875-7.6875 11.602-7.6875 18.562c0.007812 6.9609 2.7773 13.633 7.6953 18.555 4.9219 4.918 11.594 7.6875 18.555 7.6953zm0-35c3.5391 0 6.7305 2.1328 8.082 5.4023 1.3555 3.2695 0.60938 7.0312-1.8945 9.5352s-6.2656 3.25-9.5352 1.8945c-3.2695-1.3516-5.4023-4.543-5.4023-8.082 0.003906-4.832 3.918-8.7461 8.75-8.75z"/>
  <path d="m157.5 70.309c4.8906-0.14453 8.7734-4.1641 8.75-9.0586-0.019531-9.2227 2.8945-18.215 8.3242-25.672 2.8359-3.9141 1.9648-9.3867-1.9453-12.227-3.9141-2.8359-9.3867-1.9648-12.223 1.9453-7.6016 10.445-11.684 23.035-11.656 35.953v0.60938c0.011719 2.293 0.94922 4.4805 2.5938 6.0703 1.6484 1.5898 3.8672 2.4453 6.1562 2.3789z"/>
  <path d="m253.75 61.301c0.027344 4.8125 3.9375 8.6992 8.75 8.6992h0.050781c4.832-0.027344 8.7266-3.9688 8.6992-8.8008-0.046875-12.918-4.2031-25.484-11.867-35.879-1.3711-1.8789-3.4336-3.1289-5.7305-3.4844-2.2969-0.35156-4.6367 0.21875-6.5117 1.5977-1.8711 1.375-3.1211 3.4375-3.4688 5.7344s0.23047 4.6367 1.6094 6.5078c5.4727 7.4258 8.4375 16.402 8.4688 25.625z"/>
  <path d="m162.63 85.531c-3.8789 2.8828-4.6875 8.3633-1.8047 12.238 7.6797 10.387 18.461 18.062 30.789 21.922 4.6094 1.4492 9.5195-1.1133 10.969-5.7227 1.4492-4.6133-1.1133-9.5234-5.7227-10.973-8.7852-2.7969-16.477-8.2773-21.988-15.668-1.3828-1.8633-3.4531-3.0977-5.75-3.4375-2.2969-0.33594-4.6328 0.25391-6.4922 1.6406z"/>
  <path d="m193.66 20.098c0.92578 0 1.8438-0.14844 2.7188-0.44141 8.7734-2.832 18.215-2.8594 27.004-0.070312 2.2109 0.71094 4.6133 0.51562 6.6797-0.54297 2.0664-1.0625 3.625-2.8984 4.3359-5.1133 0.70703-2.2109 0.51172-4.6133-0.55469-6.6758-1.0625-2.0664-2.9023-3.625-5.1133-4.332-12.297-3.918-25.512-3.8789-37.785 0.10938-4.0859 1.3359-6.5977 5.4453-5.9219 9.6914 0.67578 4.2461 4.3398 7.375 8.6367 7.375z"/>
  <path d="m218.32 113.83c1.1875 3.5703 4.5312 5.9844 8.2969 5.9844 0.94141-0.003906 1.875-0.15625 2.7656-0.45312 12.234-4.1211 22.867-11.973 30.414-22.445 2.8164-3.9297 1.918-9.3945-2.0078-12.211-3.9258-2.8203-9.3945-1.918-12.211 2.0078-5.3906 7.4844-12.992 13.094-21.73 16.047-4.582 1.5312-7.0586 6.4844-5.5273 11.07z"/>
  <path d="m227.5 367.5c-0.011719-11.598-4.6289-22.719-12.828-30.922-8.2031-8.1992-19.324-12.816-30.922-12.828-4.2539-0.003906-8.4805 0.63672-12.543 1.8984-4.707-9.4844-13.465-16.324-23.809-18.59s-21.156 0.28125-29.398 6.9297c-8.2422 6.6445-13.023 16.672-13 27.262-12.504 0-24.059 6.6719-30.312 17.5-6.25 10.828-6.25 24.172 0 35 6.2539 10.828 17.809 17.5 30.312 17.5h78.75c11.598-0.011719 22.719-4.6289 30.922-12.828 8.1992-8.2031 12.816-19.324 12.828-30.922zm-140 8.75c0.003906-4.6406 1.8516-9.0859 5.1328-12.367s7.7266-5.1289 12.367-5.1328c2.6602 0.027344 5.2773 0.67188 7.6484 1.8789 3.3711 1.6836 7.4375 1.0195 10.098-1.6484 2.6602-2.6641 3.3203-6.7305 1.6328-10.102-1.207-2.3633-1.8516-4.9727-1.8789-7.6289-0.019531-5.957 3.0039-11.512 8.0156-14.73 5.0117-3.2227 11.32-3.6602 16.73-1.1719 5.4141 2.4922 9.1797 7.5742 9.9883 13.477 0.41797 2.8984 2.2617 5.3984 4.9102 6.6523 2.6445 1.2578 5.7461 1.1055 8.2578-0.40234 4.0156-2.4766 8.6328-3.8008 13.348-3.8242 9.3789 0 18.043 5.0039 22.734 13.125 4.6875 8.1211 4.6875 18.129 0 26.25-4.6914 8.1211-13.355 13.125-22.734 13.125h-78.75c-4.6406-0.003906-9.0859-1.8516-12.367-5.1328s-5.1289-7.7266-5.1328-12.367z"/>
  <path d="m288.75 490c0.023438-10.59-4.7578-20.617-13-27.262-8.2422-6.6484-19.055-9.1953-29.398-6.9297s-19.102 9.1055-23.809 18.59c-4.0625-1.2617-8.2891-1.9023-12.543-1.8984-15.629 0-30.074 8.3398-37.887 21.875-7.8164 13.535-7.8164 30.215 0 43.75 7.8125 13.535 22.258 21.875 37.887 21.875h78.75c12.504 0 24.059-6.6719 30.312-17.5 6.25-10.828 6.25-24.172 0-35-6.2539-10.828-17.809-17.5-30.312-17.5zm0 52.5h-78.75c-9.3789 0-18.043-5.0039-22.734-13.125-4.6875-8.1211-4.6875-18.129 0-26.25 4.6914-8.1211 13.355-13.125 22.734-13.125 4.7148 0.023438 9.332 1.3477 13.348 3.8242 2.5117 1.5078 5.6133 1.6602 8.2578 0.40234 2.6484-1.2539 4.4922-3.7539 4.9102-6.6523 0.80859-5.9023 4.5742-10.984 9.9883-13.477 5.4102-2.4883 11.719-2.0508 16.73 1.1719 5.0117 3.2188 8.0352 8.7734 8.0156 14.73-0.027344 2.6562-0.67188 5.2656-1.8789 7.6289-1.6875 3.3711-1.0273 7.4375 1.6328 10.102 2.6602 2.668 6.7266 3.332 10.098 1.6484 2.3711-1.207 4.9883-1.8516 7.6484-1.8789 6.2539 0 12.031 3.3359 15.156 8.75s3.125 12.086 0 17.5-8.9023 8.75-15.156 8.75z"/>
  <path d="m446.25 192.5c-6.9609 0-13.641 2.7656-18.562 7.6875s-7.6875 11.602-7.6875 18.562 2.7656 13.641 7.6875 18.562 11.602 7.6875 18.562 7.6875 13.641-2.7656 18.562-7.6875 7.6875-11.602 7.6875-18.562c-0.007812-6.9609-2.7773-13.633-7.6953-18.555-4.9219-4.918-11.594-7.6875-18.555-7.6953zm0 35c-3.5391 0-6.7305-2.1328-8.082-5.4023-1.3555-3.2695-0.60938-7.0312 1.8945-9.5352s6.2656-3.25 9.5352-1.8945c3.2695 1.3516 5.4023 4.543 5.4023 8.082-0.003906 4.832-3.918 8.7461-8.75 8.75z"/>
  <path d="m437.5 69.941c7.0234 0.20703 13.82-2.4922 18.789-7.4609s7.668-11.766 7.4609-18.789c-0.003906-4.7773-3.8633-8.6562-8.6406-8.6914h-0.10938c-4.7578 0.027344-8.6328 3.832-8.75 8.5859 0.25781 2.4023-0.57812 4.7891-2.2734 6.5039-1.6992 1.7148-4.0742 2.5781-6.4766 2.3516-4.832 0-8.75 3.918-8.75 8.75 0 4.832 3.918 8.75 8.75 8.75z"/>
  <path d="m393.75 113.75c0.3125 7.1641 2.5547 14.109 6.4844 20.109 3.9336 5.9961 9.4062 10.82 15.852 13.969 3.3711 1.6758 7.4336 1.0156 10.102-1.6406l2.5625-2.5625 11.312 11.312c1.6406 1.6406 3.8672 2.5625 6.1875 2.5625s4.5469-0.92188 6.1875-2.5625l11.312-11.316 2.5625 2.5625v0.003906c2.6641 2.6641 6.7305 3.3242 10.102 1.6406 6.4453-3.1445 11.922-7.9727 15.852-13.969 3.9297-6 6.1719-12.945 6.4844-20.109 6.9609-0.007812 13.633-2.7773 18.555-7.6953 4.918-4.9219 7.6875-11.594 7.6953-18.555 0-17.5-17.5-25.711-17.5-26.25 0-21.883-11.676-42.102-30.625-53.043-18.949-10.941-42.301-10.941-61.25 0-18.949 10.941-30.625 31.16-30.625 53.043 0 0.53906-17.5 8.75-17.5 26.25 0.007812 6.9609 2.7773 13.633 7.6953 18.555 4.9219 4.918 11.594 7.6875 18.555 7.6953zm79.93 15.059-3.7422-3.7461c-1.6406-1.6406-3.8672-2.5625-6.1875-2.5625s-4.5469 0.92188-6.1875 2.5625l-11.312 11.316-11.312-11.312v-0.003906c-1.6406-1.6406-3.8672-2.5625-6.1875-2.5625s-4.5469 0.92188-6.1875 2.5625l-3.7344 3.7344c-3.4727-3.0195-5.9258-7.043-7.0234-11.516 9.8359-7.7344 21.934-12.047 34.445-12.281 12.516 0.28516 24.605 4.6133 34.461 12.336-1.0898 4.4648-3.5469 8.4766-7.0312 11.473zm25.07-32.559v-17.5c4.832 0 8.75 3.918 8.75 8.75s-3.918 8.75-8.75 8.75zm-52.5-78.809c15.148 0.035156 29.191 7.9258 37.105 20.848-1.2812 1.4766-2.0195 3.3438-2.1055 5.2969 0.25781 2.4023-0.57812 4.7891-2.2734 6.5039-1.6992 1.7148-4.0742 2.5781-6.4766 2.3516-4.832 0-8.75 3.918-8.75 8.75 0 4.832 3.918 8.75 8.75 8.75 2.9727-0.015625 5.9258-0.49219 8.75-1.418v28.273c-21.664-12.477-48.336-12.477-70 0v-28.273c5.1602-1.7695 9.6289-5.125 12.773-9.582 3.1406-4.4609 4.7969-9.7969 4.7266-15.25-0.003906-4.7773-3.8633-8.6562-8.6406-8.6914h-0.10938c-4.7578 0.027344-8.6328 3.832-8.75 8.5859 0.22266 2.2305-0.5 4.4492-1.9922 6.1172-1.4922 1.6719-3.6211 2.6328-5.8594 2.6562 2.0469-9.8555 7.4219-18.707 15.227-25.066s17.559-9.8398 27.625-9.8516zm-52.5 61.309v17.5c-4.832 0-8.75-3.918-8.75-8.75s3.918-8.75 8.75-8.75z"/>
  <path d="m325.22 276.11c1.2773 1.9531 3.2812 3.3164 5.5703 3.7891 2.2891 0.46875 4.668 0.003907 6.6133-1.293 1.9414-1.2969 3.2852-3.3125 3.7344-5.6055 0.44531-2.293-0.042969-4.668-1.3555-6.6016l-15.355-23.027 15.867-63.477 50.312-41.922c3.7109-3.0938 4.2109-8.6133 1.1133-12.324-3.0938-3.7109-8.6133-4.2109-12.324-1.1133l-52.5 43.75c-1.4219 1.1875-2.4297 2.7969-2.8789 4.5938l-17.5 70c-0.60156 2.3945-0.16406 4.9258 1.2031 6.9805z"/>
  <path d="m500.77 125.65c-3.0898 3.7109-2.5898 9.2266 1.1211 12.32l50.312 41.922 15.867 63.477-15.355 23.027c-1.3125 1.9336-1.8008 4.3086-1.3555 6.6016 0.44922 2.293 1.793 4.3086 3.7344 5.6055 1.9453 1.2969 4.3242 1.7617 6.6133 1.293 2.2891-0.47266 4.293-1.8359 5.5703-3.7891l17.5-26.25c1.3672-2.0547 1.8047-4.5859 1.2031-6.9805l-17.5-70c-0.44922-1.7969-1.457-3.4062-2.8789-4.5938l-52.5-43.75c-3.7148-3.0938-9.2344-2.5938-12.332 1.1172z"/>
  <path d="m625.16 429.67-35-17.5c-2.2383-1.1094-4.8398-1.2188-7.1602-0.29688l-40.504 16.199-40.504-16.199c-2.0859-0.83203-4.4062-0.83203-6.4922 0l-40.102 16.043-31.488-15.742v-0.003906c-2.4648-1.2305-5.3633-1.2305-7.8281 0l-31.086 15.543-31.086-15.543c-2.8086-1.3984-6.1523-1.1914-8.7695 0.54688l-19.574 13.051-18.609-23.27h314.29c4.832 0 8.75-3.918 8.75-8.75s-3.918-8.75-8.75-8.75h-35.75c6.0117-7.4414 9.3594-16.684 9.5-26.25-0.28906-11.512-4.9922-22.473-13.137-30.613-8.1406-8.1445-19.102-12.848-30.613-13.137h-103.08c-4.9336-5.5469-11.996-8.7305-19.422-8.75h105c2.3203 0 4.5469-0.92188 6.1875-2.5625s2.5625-3.8672 2.5625-6.1875v-26.25c0-2.3203-0.92188-4.5469-2.5625-6.1875s-3.8672-2.5625-6.1875-2.5625h-8.75v-78.75c-0.003906-4.6406-1.8516-9.0859-5.1328-12.367s-7.7266-5.1289-12.367-5.1328h-122.5c-4.6406 0.003906-9.0859 1.8516-12.367 5.1328s-5.1289 7.7266-5.1328 12.367v78.75h-8.75c-2.3203 0-4.5469 0.92188-6.1875 2.5625s-2.5625 3.8672-2.5625 6.1875v26.25c0 2.3203 0.92188 4.5469 2.5625 6.1875s3.8672 2.5625 6.1875 2.5625h52.5c-2.3203 0-4.5469 0.92188-6.1875 2.5625s-2.5625 3.8672-2.5625 6.1875v70h-61.25c-9.3789 0-18.043-5.0039-22.734-13.125-4.6875-8.1211-4.6875-18.129 0-26.25 4.6914-8.1211 13.355-13.125 22.734-13.125h35c4.832 0 8.75-3.918 8.75-8.75s-3.918-8.75-8.75-8.75h-35c-11.512 0.28906-22.473 4.9922-30.613 13.137-8.1445 8.1406-12.848 19.102-13.137 30.613 0.14062 9.5664 3.4883 18.809 9.5 26.25h-18.25c-3.3633 0-6.4297 1.9258-7.8867 4.957s-1.0469 6.6289 1.0508 9.2578l35 43.75c2.8359 3.5469 7.9141 4.3359 11.691 1.8164l5.5664-3.7109 15.918 111.42h-0.003906c0.61719 4.3086 4.3047 7.5078 8.6562 7.5117 0.41797 0 0.83203-0.03125 1.2461-0.089844 2.2969-0.32812 4.3711-1.5547 5.7656-3.4102 1.3906-1.8594 1.9883-4.1914 1.6602-6.4883l-17.102-119.7 0.31641-0.21094 30.453 15.23h0.003907c2.4648 1.2305 5.3633 1.2305 7.8281 0l31.086-15.543 31.086 15.543c2.2344 1.1211 4.8438 1.2305 7.1602 0.29688l40.504-16.199 40.504 16.199c2.0859 0.83203 4.4062 0.83203 6.4922 0l40.102-16.043 31.488 15.742v0.003906c4.3242 2.1602 9.5781 0.40625 11.742-3.9141 0.625-1.2109 0.94141-2.5547 0.92188-3.9141-0.035156-3.3047-1.8984-6.3164-4.8359-7.8281zm-240.16-245.92h122.5v78.75h-122.5zm-17.5 105v-8.75h157.5v8.75zm183.75 43.75c9.3789 0 18.043 5.0039 22.734 13.125 4.6875 8.1211 4.6875 18.129 0 26.25-4.6914 8.1211-13.355 13.125-22.734 13.125h-96.25v-52.5zm-131.25-8.75h8.75c4.832 0.003906 8.7461 3.918 8.75 8.75v52.5h-17.5z"/>
  <path d="m481.25 490h-17.5c-4.832 0-8.75 3.918-8.75 8.75s3.918 8.75 8.75 8.75h17.5c4.832 0 8.75-3.918 8.75-8.75s-3.918-8.75-8.75-8.75z"/>
  <path d="m568.75 490h-52.5c-4.832 0-8.75 3.918-8.75 8.75s3.918 8.75 8.75 8.75h52.5c4.832 0 8.75-3.918 8.75-8.75s-3.918-8.75-8.75-8.75z"/>
  <path d="m516.25 525h-17.5c-4.832 0-8.75 3.918-8.75 8.75s3.918 8.75 8.75 8.75h17.5c4.832 0 8.75-3.918 8.75-8.75s-3.918-8.75-8.75-8.75z"/>
  <path d="m463.75 525h-52.5c-4.832 0-8.75 3.918-8.75 8.75s3.918 8.75 8.75 8.75h52.5c4.832 0 8.75-3.918 8.75-8.75s-3.918-8.75-8.75-8.75z"/>
  <path d="m498.75 472.5h17.5c4.832 0 8.75-3.918 8.75-8.75s-3.918-8.75-8.75-8.75h-17.5c-4.832 0-8.75 3.918-8.75 8.75s3.918 8.75 8.75 8.75z"/>
  <path d="m411.25 472.5h52.5c4.832 0 8.75-3.918 8.75-8.75s-3.918-8.75-8.75-8.75h-52.5c-4.832 0-8.75 3.918-8.75 8.75s3.918 8.75 8.75 8.75z"/>
  <path d="m239.11 177.28-96.25 87.5c-1.7344 1.5586-2.7773 3.7422-2.8945 6.0703-0.11719 2.3242 0.69922 4.6055 2.2656 6.3281 1.5703 1.7227 3.7578 2.75 6.0898 2.8555 2.3281 0.10156 4.5977-0.73047 6.3125-2.3086l90.07-81.887 37.855 37.852c3.4258 3.3633 8.9219 3.3359 12.316-0.058594 3.3945-3.3945 3.4219-8.8906 0.058594-12.316l-43.75-43.75c-3.3047-3.3008-8.6172-3.4258-12.074-0.28516z"/>
  <path d="m84.355 199.22 47.305-39.422 55.758 39.824c3.9336 2.7891 9.3789 1.8711 12.184-2.0508 2.8008-3.9258 1.8984-9.3789-2.0156-12.191l-61.25-43.75c-3.2422-2.3125-7.6328-2.1484-10.691 0.40234l-52.5 43.75c-2.0195 1.6406-3.1797 4.1172-3.1445 6.7188 0.023438 2.043 0.73438 4.0156 2.0234 5.6016 1.4883 1.7852 3.6211 2.9062 5.9336 3.1172 2.3125 0.20703 4.6172-0.51172 6.3984-2z"/>
 </g>
</svg>
